<svg width="673" height="235" viewBox="0 0 673 235" fill="none" xmlns="http://www.w3.org/2000/svg">
<path fill-rule="evenodd" clip-rule="evenodd" d="M150.5 51.0005V150.501C150.5 150.501 149.5 187.5 193 187.5C236.5 187.5 233.5 150.501 233.5 150.501V51.0005C233.5 51.0005 233.497 15.0061 192 14.5C151 14 150.5 51.0005 150.5 51.0005ZM183.5 51.0005V150.501C189 158.5 197 156.5 200 150.501V51.0005C195 43 186 46 183.5 51.0005Z" fill="black" stroke="black"/>
<path fill-rule="evenodd" clip-rule="evenodd" d="M325.002 50.5055V150.006C325.002 150.006 324.002 187.005 367.502 187.005C411.002 187.005 408.002 150.006 408.002 150.006V50.5055C408.002 50.5055 407.999 14.5111 366.502 14.005C325.502 13.505 325.002 50.5055 325.002 50.5055ZM358.002 50.5055V150.006C363.502 158.005 371.502 156.005 374.502 150.006V50.5055C369.502 42.505 360.502 45.505 358.002 50.5055Z" fill="black" stroke="black"/>
<path d="M35.5 186H3.5V16.5H55.5L70.5 119L84.5 16.5H137V186H105V65.5L86 186H55.5L35.5 65.5V186Z" fill="black" stroke="black"/>
<path d="M316 16H242V49H262V186H296V49H316V16Z" fill="black" stroke="black"/>
<rect x="452" y="17" width="203" height="199" fill="white"/>
<path fill-rule="evenodd" clip-rule="evenodd" d="M427 0V233H673V0H427ZM634.5 33.5H497C477.4 34.3 468.5 52.5 466.5 61.5V174.5C470.1 193.3 486 200.333 493.5 201.5H607.5C626.3 197.9 633.333 180.667 634.5 172.5L634.371 101.5H533.5V134.5H600.5V168.5H499.5V67.5H634.5V33.5Z" fill="#F22230"/>
<path d="M7.32528 207.818V234H2.58239V207.818H7.32528ZM34.6969 207.818V234H30.4782L18.1415 216.166H17.9242V234H13.1813V207.818H17.4256L29.7495 225.665H29.9796V207.818H34.6969ZM49.457 234H40.5849V207.818H49.636C52.2355 207.818 54.4684 208.342 56.3349 209.391C58.2099 210.43 59.6502 211.926 60.6559 213.878C61.6616 215.83 62.1644 218.165 62.1644 220.884C62.1644 223.611 61.6573 225.955 60.6431 227.915C59.6374 229.875 58.1843 231.379 56.2837 232.428C54.3917 233.476 52.1161 234 49.457 234ZM45.3278 229.896H49.2269C51.0508 229.896 52.5721 229.564 53.7909 228.899C55.0096 228.226 55.9258 227.224 56.5394 225.895C57.1531 224.557 57.4599 222.886 57.4599 220.884C57.4599 218.881 57.1531 217.219 56.5394 215.898C55.9258 214.568 55.0181 213.575 53.8164 212.919C52.6232 212.254 51.1403 211.922 49.3676 211.922H45.3278V229.896ZM72.1337 207.818V234H67.3908V207.818H72.1337ZM81.3519 234H76.2894L85.5068 207.818H91.3619L100.592 234H95.5295L88.5366 213.188H88.3321L81.3519 234ZM81.5181 223.734H95.325V227.544H81.5181V223.734ZM114.41 234V207.818H119.153V219.848H119.473L129.687 207.818H135.478L125.353 219.567L135.568 234H129.866L122.055 222.776L119.153 226.202V234H114.41ZM142.856 234H137.793L147.011 207.818H152.866L162.096 234H157.033L150.04 213.188H149.836L142.856 234ZM143.022 223.734H156.829V227.544H143.022V223.734ZM179.276 234H174.214L183.431 207.818H189.286L198.516 234H193.454L186.461 213.188H186.256L179.276 234ZM179.442 223.734H193.249V227.544H179.442V223.734ZM219.189 207.818H223.932V224.923C223.932 226.798 223.489 228.447 222.602 229.871C221.725 231.294 220.489 232.406 218.895 233.207C217.301 234 215.439 234.396 213.308 234.396C211.169 234.396 209.303 234 207.709 233.207C206.115 232.406 204.879 231.294 204.001 229.871C203.124 228.447 202.685 226.798 202.685 224.923V207.818H207.428V224.527C207.428 225.618 207.666 226.589 208.144 227.442C208.629 228.294 209.311 228.963 210.189 229.449C211.067 229.926 212.107 230.165 213.308 230.165C214.51 230.165 215.55 229.926 216.428 229.449C217.314 228.963 217.996 228.294 218.473 227.442C218.95 226.589 219.189 225.618 219.189 224.527V207.818ZM228.657 211.794V207.818H249.546V211.794H241.453V234H236.749V211.794H228.657ZM276.527 220.909C276.527 223.73 275.999 226.146 274.942 228.158C273.894 230.161 272.462 231.695 270.647 232.76C268.84 233.825 266.79 234.358 264.498 234.358C262.205 234.358 260.151 233.825 258.336 232.76C256.529 231.686 255.097 230.148 254.04 228.145C252.992 226.134 252.468 223.722 252.468 220.909C252.468 218.088 252.992 215.676 254.04 213.673C255.097 211.662 256.529 210.124 258.336 209.058C260.151 207.993 262.205 207.46 264.498 207.46C266.79 207.46 268.84 207.993 270.647 209.058C272.462 210.124 273.894 211.662 274.942 213.673C275.999 215.676 276.527 218.088 276.527 220.909ZM271.759 220.909C271.759 218.923 271.448 217.249 270.826 215.885C270.212 214.513 269.36 213.477 268.269 212.778C267.178 212.071 265.921 211.717 264.498 211.717C263.074 211.717 261.817 212.071 260.726 212.778C259.635 213.477 258.779 214.513 258.157 215.885C257.543 217.249 257.236 218.923 257.236 220.909C257.236 222.895 257.543 224.574 258.157 225.946C258.779 227.31 259.635 228.345 260.726 229.053C261.817 229.751 263.074 230.101 264.498 230.101C265.921 230.101 267.178 229.751 268.269 229.053C269.36 228.345 270.212 227.31 270.826 225.946C271.448 224.574 271.759 222.895 271.759 220.909ZM291.381 234V207.818H301.404C303.296 207.818 304.868 208.116 306.121 208.713C307.383 209.301 308.324 210.107 308.946 211.129C309.577 212.152 309.892 213.311 309.892 214.607C309.892 215.672 309.688 216.584 309.279 217.342C308.87 218.092 308.32 218.702 307.63 219.17C306.939 219.639 306.168 219.976 305.316 220.18V220.436C306.245 220.487 307.135 220.773 307.988 221.293C308.848 221.804 309.552 222.528 310.097 223.466C310.642 224.403 310.915 225.537 310.915 226.866C310.915 228.222 310.587 229.44 309.931 230.523C309.275 231.597 308.286 232.445 306.965 233.067C305.644 233.689 303.982 234 301.979 234H291.381ZM296.124 230.037H301.225C302.946 230.037 304.187 229.709 304.945 229.053C305.712 228.388 306.096 227.536 306.096 226.496C306.096 225.72 305.904 225.021 305.52 224.399C305.137 223.768 304.591 223.274 303.884 222.916C303.177 222.55 302.333 222.366 301.353 222.366H296.124V230.037ZM296.124 218.953H300.816C301.634 218.953 302.371 218.804 303.027 218.506C303.684 218.199 304.199 217.768 304.574 217.214C304.958 216.652 305.15 215.987 305.15 215.22C305.15 214.206 304.792 213.371 304.076 212.714C303.368 212.058 302.316 211.73 300.918 211.73H296.124V218.953ZM319.123 234H314.061L323.278 207.818H329.133L338.364 234H333.301L326.308 213.188H326.104L319.123 234ZM319.29 223.734H333.097V227.544H319.29V223.734ZM342.046 234V231.047L355.47 211.794H341.97V207.818H361.35V210.771L347.94 230.024H361.427V234H342.046ZM370.099 234H365.036L374.253 207.818H380.109L389.339 234H384.276L377.283 213.188H377.079L370.099 234ZM370.265 223.734H384.072V227.544H370.265V223.734ZM393.507 234V207.818H403.325C405.337 207.818 407.024 208.168 408.388 208.866C409.76 209.565 410.796 210.545 411.494 211.807C412.202 213.06 412.556 214.521 412.556 216.192C412.556 217.871 412.198 219.328 411.482 220.564C410.774 221.791 409.73 222.741 408.35 223.415C406.969 224.08 405.273 224.412 403.261 224.412H396.269V220.474H402.622C403.798 220.474 404.761 220.312 405.511 219.989C406.261 219.656 406.815 219.175 407.173 218.544C407.54 217.905 407.723 217.121 407.723 216.192C407.723 215.263 407.54 214.47 407.173 213.814C406.807 213.149 406.249 212.646 405.499 212.305C404.749 211.956 403.781 211.781 402.597 211.781H398.25V234H393.507ZM407.033 222.136L413.514 234H408.222L401.855 222.136H407.033Z" fill="black"/>
</svg>
